<?xml version="1.0" standalone="no"?>
<!DOCTYPE svg PUBLIC "-//W3C//DTD SVG 20010904//EN"
 "http://www.w3.org/TR/2001/REC-SVG-20010904/DTD/svg10.dtd">
<svg version="1.0" xmlns="http://www.w3.org/2000/svg"
 width="300.000000pt" height="347.000000pt" viewBox="0 0 300.000000 347.000000"
 preserveAspectRatio="xMidYMid meet">

<g transform="translate(0.000000,347.000000) scale(0.100000,-0.100000)"
fill="#000000" stroke="none">
<path d="M1470 3456 c-10 -9 -202 -57 -309 -77 -242 -44 -436 -34 -642 35
l-95 32 -19 -25 c-61 -81 -184 -219 -278 -313 l-109 -108 84 -89 c46 -49 99
-116 119 -150 20 -33 39 -58 43 -56 3 3 4 2 2 -1 -2 -3 13 -42 33 -87 50 -108
64 -139 67 -154 1 -7 14 -61 28 -120 37 -159 54 -308 54 -483 0 -350 -75 -637
-222 -853 -25 -38 -46 -72 -46 -77 0 -5 -5 -10 -12 -12 -20 -7 -23 -182 -3
-257 39 -151 161 -259 360 -320 39 -12 149 -38 245 -57 96 -20 216 -44 265
-54 106 -22 260 -72 310 -101 19 -12 35 -18 35 -15 0 3 11 -5 24 -17 13 -12
41 -36 63 -54 l40 -32 28 29 c90 94 314 179 600 230 386 68 525 118 638 228
65 64 118 171 124 254 7 88 -9 138 -63 195 -49 53 -127 165 -138 201 -4 12
-12 22 -17 22 -6 0 -8 3 -5 8 2 4 -6 32 -20 62 -13 30 -23 63 -24 72 0 9 -4
18 -10 20 -5 2 -12 19 -15 38 -3 19 -8 53 -11 75 -3 21 -8 43 -11 48 -20 33
-24 578 -5 687 19 106 57 266 77 325 52 152 146 306 256 418 38 38 69 71 69
72 0 12 -125 133 -133 128 -6 -3 -7 -1 -3 5 3 6 2 13 -4 17 -17 10 -194 227
-219 268 -12 20 -24 37 -26 37 -1 0 -27 -11 -57 -24 -71 -32 -178 -63 -258
-75 -77 -12 -317 -16 -344 -5 -14 5 -17 4 -12 -4 4 -7 2 -12 -3 -12 -6 0 -11
4 -11 8 0 4 -39 16 -87 26 -71 15 -244 63 -333 92 -9 3 -18 3 -20 0z m144 -76
c349 -101 646 -103 896 -5 l59 23 58 -73 c32 -40 63 -70 68 -67 6 3 7 2 3 -3
-9 -9 58 -90 75 -90 7 0 12 -6 12 -13 0 -7 28 -44 63 -82 34 -38 62 -71 62
-74 0 -3 -16 -22 -36 -43 -56 -59 -132 -171 -174 -253 -70 -139 -138 -344
-126 -377 4 -9 2 -11 -6 -7 -7 5 -9 -1 -6 -20 3 -14 2 -29 -3 -31 -4 -3 -11
-27 -15 -53 -5 -26 -9 -49 -9 -52 -1 -3 -5 -30 -9 -60 -5 -34 -18 -66 -32 -83
-30 -35 -38 -67 -31 -115 4 -20 3 -43 -2 -50 -13 -22 -20 19 -27 158 -11 207
12 296 119 460 26 41 38 64 27 50 -12 -14 -26 -25 -31 -25 -5 0 -25 -18 -44
-39 -29 -33 -33 -42 -22 -55 10 -12 9 -13 -1 -7 -16 10 -44 -23 -37 -42 3 -7
1 -11 -4 -8 -13 9 -41 -68 -42 -117 -1 -41 -1 -41 -26 33 -24 75 -25 75 -7
130 14 43 18 90 19 217 0 89 -3 156 -6 150 -4 -7 -16 -52 -28 -102 -16 -69
-19 -109 -15 -172 6 -89 -4 -106 -25 -45 -8 20 -23 56 -34 80 -26 58 -19 118
23 185 18 29 42 68 54 87 19 34 18 33 -29 -12 -28 -27 -53 -48 -56 -48 -8 0
-19 41 -25 90 -6 48 -23 87 -41 94 -25 10 -35 -4 -28 -43 10 -58 16 -72 27
-65 6 4 8 2 5 -3 -4 -6 0 -27 8 -47 17 -40 19 -56 7 -56 -4 0 -25 36 -45 80
-37 80 -72 116 -83 86 -3 -8 6 -33 21 -56 15 -23 25 -44 22 -46 -7 -7 -40 35
-67 84 -30 54 -60 65 -60 22 0 -19 14 -44 46 -79 64 -71 49 -76 -19 -7 -58 60
-67 65 -67 40 0 -31 31 -79 65 -103 20 -13 34 -28 32 -34 -4 -12 -67 -18 -67
-6 0 12 -37 11 -45 -1 -3 -5 4 -12 17 -14 13 -3 36 -8 53 -11 16 -4 70 -26
120 -50 99 -47 90 -36 142 -162 13 -33 -31 -7 -74 42 -26 30 -54 55 -60 55 -7
0 -13 4 -13 9 0 13 -86 53 -131 61 -52 10 -49 -1 7 -24 53 -22 123 -78 240
-192 71 -70 82 -85 96 -139 40 -147 32 -162 -28 -57 -50 87 -133 169 -212 211
-56 29 -122 55 -122 47 0 -2 30 -23 68 -48 93 -62 157 -119 220 -197 30 -36
58 -67 63 -69 5 -2 9 -9 9 -16 0 -7 9 -21 19 -30 16 -15 46 -105 37 -113 -4
-4 -37 32 -71 75 -28 36 -146 137 -221 189 -33 23 -169 73 -199 73 -30 0 -6
-16 67 -45 67 -26 85 -41 223 -174 241 -235 226 -212 206 -316 l-7 -40 -18 55
c-22 68 -53 117 -110 174 -50 51 -75 65 -177 99 -42 15 -99 38 -125 53 l-49
27 28 -30 c15 -17 76 -56 135 -88 59 -31 120 -69 136 -84 78 -72 176 -242 176
-306 0 -64 -21 -166 -34 -162 -6 2 -16 25 -23 52 -27 108 -90 201 -227 333
-94 90 -97 92 -144 92 -30 0 -58 -7 -76 -19 l-29 -20 -43 30 c-37 25 -43 34
-42 63 2 54 -30 98 -82 113 -31 9 -54 10 -72 4 -24 -9 -28 -7 -28 9 0 23 36
50 66 50 11 0 29 -9 39 -20 27 -30 82 -27 117 7 34 32 37 79 8 116 -11 14 -20
34 -20 45 0 31 38 72 67 72 14 0 38 9 54 21 27 19 29 23 23 72 -6 54 -21 74
-61 82 -13 3 -34 7 -48 10 -35 7 -63 51 -47 74 64 87 67 117 20 161 -39 35
-73 33 -126 -7 -28 -21 -39 -24 -65 -16 -28 7 -33 14 -37 48 -8 53 -17 67 -42
59 -15 -4 -19 -2 -15 7 2 8 10 13 16 11 7 -1 10 1 7 6 -2 4 -21 9 -42 10 -20
2 -41 5 -47 9 -17 10 -67 -56 -67 -90 0 -42 -10 -55 -46 -63 -23 -4 -34 0 -53
20 -33 35 -103 37 -138 4 -33 -31 -32 -93 3 -129 20 -21 25 -34 20 -54 -8 -33
-38 -58 -73 -62 -40 -5 -73 -46 -73 -91 1 -51 28 -81 82 -88 39 -5 45 -10 61
-47 16 -38 16 -41 -1 -53 -9 -7 -20 -14 -24 -14 -4 0 -12 -18 -19 -39 -11 -36
-10 -42 16 -75 34 -45 77 -49 121 -11 32 28 68 28 111 0 45 -30 22 -67 -24
-40 -26 15 -31 15 -75 -5 -54 -24 -73 -62 -62 -126 6 -38 4 -40 -34 -62 -51
-28 -63 -28 -93 4 -35 37 -91 32 -144 -15 -22 -19 -42 -40 -44 -45 -2 -6 -50
-59 -106 -117 -84 -87 -106 -117 -128 -173 -15 -37 -28 -79 -28 -94 -2 -44
-20 -122 -30 -122 -7 0 -16 24 -35 105 -13 52 -13 68 -2 130 15 80 41 135 92
199 24 29 49 63 55 75 7 12 16 19 20 17 4 -3 19 6 32 20 13 14 48 41 79 61 71
47 157 119 171 144 7 14 -3 10 -34 -14 -25 -19 -79 -51 -121 -72 -42 -21 -91
-51 -108 -66 -16 -16 -33 -29 -37 -29 -12 0 -96 -93 -127 -140 -28 -43 -29
-44 -32 -19 -2 16 10 47 29 80 72 120 95 155 122 186 16 18 26 37 22 43 -4 6
-2 9 3 8 5 -2 18 6 28 17 11 12 15 14 9 5 -5 -8 5 -2 23 14 17 16 28 34 25 40
-3 6 -3 8 2 4 4 -4 31 12 59 35 29 23 63 50 76 60 14 10 -8 1 -47 -20 -40 -20
-73 -41 -73 -46 0 -4 -4 -6 -8 -3 -5 3 -21 -6 -38 -20 -16 -14 -23 -22 -15
-18 9 4 12 3 8 -4 -4 -5 -15 -9 -24 -8 -23 4 -136 -106 -150 -146 -6 -18 -14
-50 -18 -70 -3 -21 -10 -38 -15 -38 -12 0 -12 -1 5 95 17 99 26 123 57 155 13
14 39 45 58 70 19 25 37 47 41 50 3 3 28 24 55 47 94 80 149 123 156 123 5 0
8 4 8 10 0 11 -56 -13 -118 -52 -60 -37 -172 -137 -172 -154 0 -14 -12 -19
-22 -8 -9 8 22 96 41 118 9 10 44 36 79 58 35 23 59 44 55 50 -3 6 -2 8 4 5 5
-3 41 26 79 64 38 39 92 84 119 101 29 17 39 27 25 23 -42 -11 -170 -75 -170
-86 0 -6 -4 -8 -9 -5 -5 3 -39 -23 -76 -58 -47 -44 -68 -59 -72 -49 -10 25 20
65 75 101 28 19 52 38 52 42 0 14 143 100 166 100 13 0 26 5 29 10 13 21 -93
0 -117 -23 -16 -16 -107 -71 -130 -80 -14 -5 -18 -1 -18 16 0 16 11 27 38 39
42 19 160 120 179 152 35 60 -8 62 -58 4 -20 -24 -40 -40 -44 -37 -3 4 15 30
40 59 l47 53 -22 21 -21 21 -20 -24 c-10 -13 -19 -29 -19 -37 0 -8 -4 -14 -10
-14 -5 0 -10 12 -10 26 0 19 -5 25 -17 22 -15 -3 -33 -24 -69 -84 -22 -36 -26
-4 -5 38 24 50 15 68 -25 49 -16 -7 -24 -17 -20 -26 3 -8 0 -14 -7 -12 -7 1
-15 -19 -21 -50 -5 -29 -12 -53 -16 -53 -4 0 -15 16 -26 35 -45 84 -38 8 8
-95 36 -79 47 -169 26 -202 -8 -13 -20 -40 -27 -60 -18 -56 -28 -46 -23 22 2
33 1 67 -3 77 -4 10 -9 38 -11 63 -2 25 -12 72 -23 105 -19 58 -19 59 -27 30
-15 -56 -10 -246 9 -295 28 -74 32 -139 12 -206 l-18 -59 -12 52 c-12 53 -19
66 -64 116 -57 63 -59 47 -10 -51 59 -114 70 -184 49 -309 -18 -109 -23 -114
-53 -62 -17 30 -27 66 -32 114 -3 39 -11 93 -17 120 -6 28 -11 58 -10 68 0 9
-4 17 -9 17 -6 0 -7 5 -4 10 8 12 -33 200 -43 200 -4 0 -8 14 -9 30 -4 49
-100 249 -162 335 -19 28 -62 78 -94 111 l-58 61 52 49 c71 68 212 226 299
335 15 18 17 18 85 -5 138 -47 230 -61 390 -60 177 1 301 21 515 84 36 10 71
17 78 15 7 -3 59 -18 116 -35z m-134 -609 c0 -13 -8 -21 -22 -23 -20 -4 -18
-6 12 -15 28 -8 39 -7 53 5 9 8 17 21 17 29 0 7 9 13 20 13 31 0 100 -31 100
-44 0 -23 -13 -26 -36 -11 -22 14 -24 13 -41 -12 -9 -16 -27 -37 -40 -48 -21
-18 -22 -24 -13 -55 15 -54 14 -56 -43 -55 -42 1 -58 6 -77 25 -15 15 -25 19
-28 12 -5 -16 -22 -15 -22 2 0 17 -77 31 -95 16 -18 -15 -45 -2 -38 18 12 30
67 94 95 108 25 13 27 12 30 -9 2 -18 10 -23 41 -25 31 -3 37 0 37 16 0 13 -9
22 -25 26 -33 8 -32 22 3 34 46 17 72 14 72 -7z m270 -123 c0 -4 -9 -3 -20 4
-11 7 -20 19 -20 27 0 11 5 10 20 -4 11 -10 20 -22 20 -27z m-138 -25 c12 -15
2 -33 -18 -33 -15 0 -19 45 -7 77 7 15 8 15 11 -7 2 -14 8 -30 14 -37z m-842
27 c0 -5 -2 -10 -4 -10 -3 0 -8 5 -11 10 -3 6 -1 10 4 10 6 0 11 -4 11 -10z
m-136 -51 c9 -45 7 -87 -3 -93 -9 -6 -21 49 -21 97 0 37 16 34 24 -4z m1066
-10 c0 -20 -12 -23 -44 -10 -19 7 -18 8 4 24 27 19 40 14 40 -14z m35 11 c3
-5 1 -10 -4 -10 -6 0 -11 5 -11 10 0 6 2 10 4 10 3 0 8 -4 11 -10z m53 -39
c28 -91 -5 -223 -51 -205 -22 8 -22 31 3 72 11 18 20 45 20 60 0 15 4 33 9 41
5 7 5 27 1 42 -5 16 -5 29 -1 29 4 0 13 -17 19 -39z m-138 -33 c0 -7 -7 -22
-16 -33 -15 -20 -15 -20 -34 5 -14 18 -15 27 -7 32 19 12 57 9 57 -4z m-103
-17 c39 -2 53 -37 41 -106 -12 -70 -14 -74 -31 -52 -10 14 -19 15 -62 6 -27
-6 -55 -17 -61 -24 -9 -12 -13 -10 -27 6 -9 10 -28 19 -41 19 -13 0 -30 7 -37
16 -12 14 -10 19 11 33 13 9 44 37 68 62 38 40 49 45 81 43 20 -1 46 -2 58 -3z
m-317 -60 c0 -16 7 -34 15 -41 18 -15 19 -41 3 -61 -7 -8 -12 -12 -10 -10 1 2
-4 11 -11 20 -8 9 -20 38 -27 64 -11 41 -11 50 0 57 20 12 30 3 30 -29z m490
3 c0 -12 -42 -64 -51 -64 -19 0 -9 47 14 58 26 12 37 14 37 6z m-426 -12 c8
-13 -11 -35 -23 -28 -16 10 -14 36 3 36 8 0 17 -4 20 -8z m331 -84 c-8 -46
-12 -55 -20 -46 -9 9 7 88 17 88 6 0 7 -17 3 -42z m-105 -49 c0 -12 -9 -21
-25 -25 -14 -3 -25 -10 -25 -15 0 -5 11 -9 25 -9 16 0 25 -6 25 -15 0 -18 -41
-20 -58 -3 -7 7 -12 27 -12 45 0 26 5 36 23 42 29 11 47 3 47 -20z m-115 -3
c0 -26 -19 -31 -39 -11 -20 21 -11 37 17 33 14 -2 22 -10 22 -22z m311 13 c3
-6 0 -15 -7 -20 -22 -13 -49 -11 -49 5 0 23 43 35 56 15z m-402 -25 c9 -8 16
-20 16 -25 0 -5 14 -9 30 -9 25 0 30 -4 30 -24 0 -14 -5 -23 -13 -22 -26 3
-107 69 -107 86 0 15 27 12 44 -6z m366 -34 c0 -5 -8 -10 -17 -10 -15 0 -16 2
-3 10 19 12 20 12 20 0z m-120 -55 c0 -12 -13 -15 -55 -15 -67 0 -73 17 -7 23
26 2 50 4 55 5 4 1 7 -5 7 -13z m674 -70 c77 -70 123 -121 114 -130 -2 -2 -29
19 -60 48 -31 29 -79 71 -107 95 -49 42 -62 62 -41 62 5 0 47 -34 94 -75z
m-756 -185 c3 -16 -9 -36 -41 -69 -29 -29 -49 -61 -57 -88 -6 -24 -13 -43 -15
-43 -11 0 -35 62 -29 73 21 35 78 97 95 102 12 4 19 16 19 32 0 31 24 26 28
-7z m182 -41 c82 -74 93 -89 63 -89 -22 1 -175 138 -167 151 10 17 23 9 104
-62z m-270 51 c0 -5 -7 -10 -16 -10 -17 0 -94 -60 -94 -74 0 -5 -6 -17 -14
-25 -7 -9 -24 -49 -37 -89 -22 -70 -24 -73 -49 -67 -14 3 -55 11 -92 18 -38 6
-68 15 -68 19 0 18 86 100 151 144 38 26 99 58 136 70 78 27 83 28 83 14z
m226 -86 c46 -44 52 -54 31 -54 -7 0 -39 29 -70 64 -59 67 -76 98 -31 55 14
-13 45 -43 70 -65z m105 66 c71 -29 153 -85 216 -148 92 -94 158 -238 73 -162
-19 18 -60 54 -92 82 -31 27 -59 60 -62 74 -4 16 -13 24 -29 24 -13 0 -45 21
-77 50 -30 28 -65 58 -77 67 -24 16 -30 33 -13 33 5 0 33 -9 61 -20z m801
-203 l3 -108 -33 -25 c-22 -17 -36 -40 -43 -70 -17 -66 -34 -68 -25 -3 3 30 9
95 12 144 4 63 13 105 29 140 13 28 27 64 31 80 l8 30 7 -40 c4 -22 9 -89 11
-148z m-902 52 c11 -20 35 -46 55 -58 l36 -21 -3 -152 -3 -153 -92 -3 -93 -3
0 88 c0 48 -3 165 -6 258 l-6 170 47 -45 c26 -25 55 -61 65 -81z m-140 34 c0
-20 -3 -24 -11 -16 -7 7 -9 19 -6 27 10 24 17 19 17 -11z m-951 -11 c14 -34
11 -234 -4 -238 -5 -2 -18 3 -28 10 -17 13 -18 25 -11 135 7 126 19 151 43 93z
m1616 -29 c26 -27 56 -66 67 -87 l20 -39 -24 8 c-12 5 -46 8 -74 7 -50 -1 -53
0 -78 38 -14 22 -26 45 -26 51 0 16 43 68 57 68 6 1 33 -20 58 -46z m-448 12
c9 -25 -4 -29 -17 -6 -7 15 -7 21 0 21 6 0 13 -7 17 -15z m-759 -25 c27 -36
28 -56 2 -98 -17 -28 -26 -33 -53 -32 -53 3 -61 1 -89 -25 -29 -27 -53 -94
-44 -123 3 -9 17 -30 31 -46 l25 -29 -50 -46 c-28 -27 -51 -59 -55 -76 -4 -16
-10 -41 -14 -54 -7 -24 -7 -24 -30 12 -22 37 -22 37 -6 114 9 43 18 83 19 88
6 23 78 162 99 190 12 17 34 46 49 66 15 20 24 40 20 44 -4 5 -2 5 4 2 6 -4
22 5 34 18 30 31 32 31 58 -5z m406 -38 c31 -81 32 -88 6 -102 -23 -12 -40 -6
-40 16 0 19 -12 18 -49 -3 -24 -15 -33 -15 -43 -5 -16 16 1 46 29 50 20 3 53
63 53 95 0 36 19 14 44 -51z m124 33 c18 -40 15 -114 -4 -122 -10 -4 -22 0
-28 9 -6 9 -20 17 -30 19 -29 6 -31 28 -2 38 18 7 27 20 32 46 7 42 17 44 32
10z m322 15 c0 -5 -4 -10 -10 -10 -5 0 -10 5 -10 10 0 6 5 10 10 10 6 0 10 -4
10 -10z m171 -131 c57 -50 109 -101 116 -112 15 -26 17 -67 4 -67 -15 0 -279
254 -274 263 14 24 58 0 154 -84z m-42 -65 c79 -74 153 -140 163 -145 29 -15
12 -29 -36 -29 -42 0 -46 3 -123 88 -134 146 -163 182 -163 203 0 10 3 19 8
19 4 0 72 -61 151 -136z m-764 85 c42 -20 42 -40 1 -99 -39 -56 -48 -113 -21
-124 23 -9 18 -43 -7 -50 -39 -10 -216 -7 -223 4 -10 16 15 147 38 199 40 92
43 94 117 89 36 -3 79 -11 95 -19z m749 -183 c32 -37 57 -68 55 -71 -4 -3
-148 -8 -186 -6 -10 1 -13 31 -13 119 l1 117 42 -47 c23 -25 69 -76 101 -112z
m386 150 c0 -2 7 -19 15 -39 13 -31 13 -36 -1 -41 -8 -3 -13 -2 -9 3 3 5 0 15
-7 23 -16 16 -21 58 -8 58 6 0 10 -2 10 -4z m-810 -61 c22 -27 0 -33 -125 -37
-105 -3 -120 -1 -123 14 -3 17 -6 16 183 31 22 2 43 4 46 5 4 1 12 -5 19 -13z
m833 -80 c24 -41 47 -71 51 -67 9 8 0 -28 -19 -84 -16 -47 -27 -52 -45 -20
-12 23 -84 65 -119 71 -19 2 -41 35 -41 61 0 22 17 34 49 34 10 0 30 18 45 40
14 22 28 40 31 40 2 0 24 -34 48 -75z m235 23 c16 -53 24 -96 26 -128 3 -47
28 -120 39 -113 6 3 7 1 3 -6 -12 -18 3 -54 18 -42 8 7 12 5 12 -9 0 -10 -4
-16 -8 -14 -13 8 -10 -2 18 -61 15 -31 35 -62 45 -69 11 -7 16 -16 12 -19 -7
-8 33 -70 95 -146 l45 -55 -5 -86 c-6 -105 -40 -183 -108 -251 -86 -86 -137
-106 -460 -186 -14 -3 -36 -7 -50 -9 -122 -15 -304 -55 -339 -73 -11 -7 -21
-9 -21 -6 0 4 -5 3 -12 -1 -7 -4 -28 -9 -48 -11 -40 -5 -200 -79 -200 -94 0
-6 -4 -8 -8 -5 -5 3 -24 -8 -43 -24 -42 -36 -61 -37 -103 -5 -90 68 -219 112
-541 184 -208 47 -399 93 -414 100 -9 5 -47 22 -84 40 -77 36 -152 101 -182
158 -11 21 -22 40 -25 43 -3 3 -6 14 -7 25 -2 11 -6 45 -11 75 -11 82 4 167
39 211 16 20 25 40 21 45 -4 5 -3 5 3 1 10 -8 38 32 86 126 42 82 74 176 100
292 12 55 26 104 30 109 4 4 23 3 42 -3 33 -11 36 -16 42 -64 4 -29 12 -60 17
-70 5 -10 11 -27 13 -38 2 -12 7 -29 10 -40 5 -16 1 -19 -29 -19 -29 0 -45 -9
-80 -42 -41 -39 -155 -219 -138 -217 4 0 30 28 57 61 73 89 116 121 162 121
59 0 77 -9 98 -50 37 -71 79 -124 103 -130 26 -6 55 13 36 25 -24 15 -94 108
-94 124 0 37 26 102 51 129 15 16 24 31 20 34 -3 4 -1 5 4 4 6 -2 24 4 41 14
35 18 44 14 44 -20 0 -17 -10 -28 -43 -43 -56 -27 -80 -66 -71 -120 5 -28 16
-48 37 -66 27 -22 37 -25 75 -20 40 5 47 3 73 -25 33 -35 36 -55 14 -86 -8
-12 -18 -42 -22 -68 -5 -39 -2 -49 17 -70 13 -13 27 -22 33 -18 6 3 7 1 4 -4
-4 -6 0 -16 7 -22 18 -15 88 2 128 30 27 20 27 20 70 -4 37 -21 43 -28 40 -53
-1 -16 4 -47 12 -69 12 -34 20 -41 66 -57 34 -11 58 -14 69 -9 24 14 58 53 65
77 5 17 17 23 64 28 62 8 54 13 119 -73 l23 -29 61 17 c55 14 64 20 76 50 8
19 13 50 11 69 -4 28 1 38 23 55 16 11 27 23 25 26 -2 3 12 7 31 9 23 1 44 -5
60 -18 41 -32 90 -27 134 16 33 32 37 41 32 73 -3 20 -17 48 -31 63 l-25 27
20 48 c19 48 20 48 74 54 60 6 103 25 94 40 -4 5 -2 9 2 9 15 0 30 54 27 93
-2 20 -1 37 1 37 9 0 35 -59 35 -80 0 -11 7 -20 15 -20 17 0 15 -53 -4 -89 -7
-12 -8 -21 -4 -21 5 0 17 19 28 43 17 35 28 45 74 63 68 27 97 19 164 -44 26
-26 47 -43 47 -39 0 17 -3 22 -12 19 -5 -1 -7 2 -3 8 9 15 -43 97 -78 122 -37
26 -73 25 -122 -3 -42 -25 -44 -20 -18 74 24 88 108 227 136 227 7 0 18 -19
25 -42z m-1218 -14 c0 -8 -10 -14 -25 -14 -27 0 -32 9 -14 27 14 14 39 6 39
-13z m64 -5 c-7 -11 -44 -12 -44 -1 0 4 5 13 12 20 13 13 42 -4 32 -19z m94 2
c3 -20 1 -22 -15 -16 -10 4 -26 7 -35 7 -10 0 -20 3 -23 9 -11 17 4 27 37 25
26 -1 34 -6 36 -25z m-221 3 c5 -15 -20 -24 -37 -14 -7 4 -9 13 -5 19 8 14 37
11 42 -5z m203 -49 c0 -11 -12 -15 -42 -16 -24 -1 -75 -3 -115 -5 -69 -4 -92
4 -78 26 4 6 55 10 121 10 95 0 114 -3 114 -15z m20 -45 c0 -6 -27 -10 -62
-10 -45 0 -59 3 -48 10 20 13 110 13 110 0z m601 -57 c6 -6 9 -23 7 -38 l-3
-28 -170 2 c-149 2 -172 4 -185 20 -10 11 -27 17 -47 15 -18 -1 -45 -2 -59 -3
-14 0 -23 -5 -19 -10 9 -15 -32 -23 -55 -11 -11 6 -20 7 -20 3 0 -16 -20 23
-20 39 0 16 18 18 203 21 286 4 356 2 368 -10z m-601 -114 c0 -66 -4 -118 -8
-115 -17 10 -64 85 -58 94 3 4 8 30 11 56 l7 48 -72 -7 c-60 -6 -74 -4 -91 10
-10 10 -19 22 -19 27 0 4 52 8 115 8 l115 0 0 -121z m-460 95 c0 -14 -7 -16
-44 -11 -48 7 -59 -3 -49 -43 4 -16 2 -21 -8 -18 -15 5 -27 45 -21 71 6 25
122 26 122 1z m120 11 c0 -12 -24 -55 -31 -55 -9 0 -29 33 -29 49 0 6 14 11
30 11 17 0 30 -2 30 -5z m95 -11 c31 -20 32 -30 3 -37 -29 -8 -58 9 -58 33 0
24 22 26 55 4z m-171 -21 c7 -17 -12 -36 -26 -27 -4 3 -8 14 -8 25 0 23 25 25
34 2z m-75 -22 c9 -15 7 -20 -9 -24 -23 -6 -30 0 -30 25 0 24 26 23 39 -1z
m403 -36 c-5 -29 -9 -30 -34 -8 -26 23 -22 33 11 33 25 0 28 -3 23 -25z m-48
-18 c26 -34 33 -71 18 -95 -11 -16 -79 32 -112 78 -26 37 -17 50 37 50 25 0
38 -8 57 -33z m636 2 c0 -12 -27 -11 -35 1 -11 17 5 32 21 19 8 -6 14 -15 14
-20z m48 12 c3 -8 -4 -12 -19 -9 -12 1 -24 9 -27 16 -2 8 4 11 19 9 13 -2 25
-9 27 -16z m-395 -11 c4 -15 0 -20 -13 -20 -22 0 -34 15 -25 30 10 17 32 11
38 -10z m40 5 c7 -16 -8 -29 -23 -20 -15 9 -12 35 4 35 8 0 16 -7 19 -15z m52
-5 c0 -8 -8 -16 -17 -18 -13 -2 -18 3 -18 18 0 15 5 20 18 18 9 -2 17 -10 17
-18z m51 9 c10 -17 -13 -36 -27 -22 -12 12 -4 33 11 33 5 0 12 -5 16 -11z m50
0 c10 -17 -13 -36 -27 -22 -12 12 -4 33 11 33 5 0 12 -5 16 -11z m49 -9 c0
-22 -29 -18 -33 3 -3 14 1 18 15 15 10 -2 18 -10 18 -18z m48 13 c9 -9 -13
-34 -24 -27 -14 8 -11 34 4 34 8 0 17 -3 20 -7z m118 -76 c-6 -6 -11 -20 -11
-31 -1 -27 -30 -66 -37 -48 -8 20 -22 14 -16 -8 3 -11 8 -18 12 -16 4 3 7 -4
7 -15 0 -31 -32 -22 -47 14 -8 17 -13 35 -11 40 1 4 -3 7 -10 7 -6 0 -9 3 -5
6 3 3 1 18 -4 32 -17 46 7 48 30 3 12 -22 24 -41 27 -41 2 0 0 9 -6 20 -6 11
-8 20 -5 20 3 0 1 9 -5 20 -7 14 -7 20 0 20 5 0 10 -6 10 -12 1 -8 6 -5 15 6
7 10 18 15 24 12 5 -4 13 -1 17 5 5 8 10 6 16 -6 7 -11 6 -21 -1 -28z m-891
-45 c0 -7 -11 -17 -25 -22 -14 -5 -25 -16 -25 -25 0 -10 -9 -15 -26 -15 -25 0
-26 -2 -20 -40 3 -22 3 -40 -2 -40 -17 0 -102 111 -102 134 0 3 10 6 23 6 12
0 32 7 44 15 13 9 32 13 46 10 25 -7 56 15 58 38 1 15 28 -43 29 -61z m-135
49 c3 -5 1 -13 -5 -16 -15 -9 -43 3 -35 15 8 13 32 13 40 1z m895 -46 c7 -25
17 -48 21 -51 5 -3 9 -17 8 -32 -1 -23 -5 -18 -25 27 -29 63 -42 117 -27 108
6 -4 16 -27 23 -52z m-140 -69 c34 -100 33 -96 20 -96 -5 0 -10 6 -10 13 0 6
-6 24 -14 39 -19 36 -56 136 -56 151 0 31 33 -28 60 -107z m54 92 c9 -12 16
-30 16 -40 0 -16 17 -34 25 -27 2 2 -3 21 -10 42 -7 20 -9 37 -5 37 11 0 60
-118 59 -143 l0 -22 -11 23 c-6 12 -16 22 -22 22 -6 0 -5 -5 2 -12 16 -16 15
-58 -1 -58 -8 0 -19 10 -25 23 l-11 22 0 -22 c-1 -25 -2 -26 -25 -17 -8 3 -12
12 -9 20 3 8 1 14 -3 14 -5 0 -10 12 -11 26 0 15 -7 30 -15 35 -7 5 -10 9 -7
9 4 0 3 17 -2 38 l-8 37 19 -24 c10 -14 23 -42 29 -63 12 -39 31 -60 31 -34 0
9 -4 16 -8 16 -4 0 -9 11 -10 25 -1 14 -9 39 -17 55 -18 34 -18 40 -6 40 6 0
17 -10 25 -22z m-189 4 c15 -10 76 -173 69 -184 -10 -15 -24 2 -54 68 -45 96
-51 142 -15 116z m75 -54 c13 -35 32 -80 42 -102 20 -39 12 -70 -10 -43 -12
14 -72 178 -72 196 0 30 20 4 40 -51z m-264 12 c41 -61 13 -97 -35 -46 -18 19
-21 31 -16 55 9 41 19 39 51 -9z m137 -90 c16 -41 31 -85 34 -97 5 -22 10 -23
114 -23 60 0 109 -3 109 -7 0 -10 -74 -55 -125 -76 -49 -20 -119 -36 -161 -37
l-31 0 -7 151 c-3 82 -4 155 0 160 15 26 40 0 67 -71z m-328 -19 c-10 -16 -25
-3 -25 22 0 20 1 20 16 5 9 -9 13 -21 9 -27z m230 -6 c7 -32 7 -55 6 -154 l-1
-63 -65 4 c-93 6 -105 26 -21 35 41 5 44 8 48 37 7 61 2 66 -60 66 l-57 0 3
-45 c2 -26 0 -45 -6 -45 -13 0 -22 25 -22 60 0 16 -4 32 -10 35 -14 9 -13 62
2 71 6 4 32 7 57 6 25 -1 62 4 81 11 19 7 36 13 37 12 1 0 5 -14 8 -30z m-300
-5 c-5 -8 -11 -8 -17 -2 -6 6 -7 16 -3 22 5 8 11 8 17 2 6 -6 7 -16 3 -22z
m-75 -41 c0 -11 -4 -17 -10 -14 -5 3 -10 15 -10 26 0 11 5 17 10 14 6 -3 10
-15 10 -26z m180 -74 c10 -12 10 -18 0 -30 -22 -26 -67 -18 -119 21 -1 1 0 7
4 13 10 17 100 14 115 -4z"/>
<path d="M1305 3300 c-33 -4 -112 -13 -175 -20 -140 -15 -409 -79 -505 -120
-11 -5 -47 -18 -80 -29 -120 -40 -250 -94 -272 -112 -9 -8 -9 -16 0 -36 9 -20
8 -27 -3 -33 -55 -32 -55 -27 16 -145 37 -61 69 -112 71 -114 2 -3 24 5 49 17
36 18 44 26 39 40 -19 45 -17 48 57 82 212 97 274 119 443 154 60 13 111 29
113 36 5 13 -5 12 -143 -21 -183 -43 -320 -91 -441 -156 -47 -25 -64 -30 -71
-20 -17 22 -93 166 -93 176 0 5 9 13 20 16 11 4 17 11 14 17 -4 6 -2 8 3 5 6
-4 42 6 80 22 187 79 466 159 652 186 239 35 594 40 785 11 59 -9 113 -13 119
-9 5 3 7 2 4 -4 -3 -5 21 -15 54 -22 173 -35 639 -200 639 -225 0 -10 -89
-176 -94 -176 -2 0 -64 25 -137 56 -188 78 -390 138 -519 155 -137 18 -460 37
-546 32 -109 -6 -293 -28 -301 -37 -14 -13 6 -16 57 -6 29 5 81 10 116 10 35
0 64 3 64 8 0 10 408 -3 520 -18 179 -23 365 -73 593 -162 99 -39 127 -53 127
-68 0 -10 -6 -21 -12 -23 -18 -7 12 -29 30 -22 7 3 10 0 7 -5 -3 -6 -4 -10 -2
-10 3 0 20 -7 40 -15 l35 -14 65 109 66 110 -45 19 c-44 20 -45 21 -30 44 16
23 15 24 -43 52 -33 15 -62 26 -64 24 -3 -2 -14 4 -25 15 -12 10 -32 19 -46
20 -14 0 -26 4 -26 7 0 6 -74 32 -95 34 -5 1 -19 6 -30 12 -20 11 -77 30 -111
38 -10 2 -59 16 -109 31 -49 14 -107 27 -127 28 -21 0 -38 4 -38 7 0 8 -113
27 -235 41 -126 13 -381 18 -460 8z m1419 -383 c16 -12 14 -19 -30 -95 -27
-45 -53 -82 -59 -82 -6 0 -19 6 -29 13 -17 12 -16 16 13 66 17 29 28 57 25 63
-4 6 -3 8 3 5 6 -4 15 5 21 18 13 28 29 31 56 12z m-2361 -79 c37 -62 45 -83
35 -89 -7 -5 -18 -9 -23 -9 -14 0 -107 158 -100 170 17 27 43 6 88 -72z"/>
<path d="M1391 3213 c6 -6 17 -9 25 -6 23 9 16 23 -10 21 -19 -2 -22 -5 -15
-15z"/>
<path d="M1540 3216 c6 -8 19 -12 27 -9 14 6 14 8 -3 14 -30 12 -37 10 -24 -5z"/>
<path d="M1219 3203 c-13 -16 -12 -17 3 -5 9 8 23 10 29 6 8 -4 9 -3 5 4 -10
17 -21 15 -37 -5z"/>
<path d="M1280 3216 c0 -10 28 -13 41 -5 10 6 7 9 -13 9 -16 0 -28 -2 -28 -4z"/>
<path d="M1503 3185 c0 -22 2 -30 4 -17 2 12 2 30 0 40 -3 9 -5 -1 -4 -23z"/>
<path d="M1600 3186 c0 -31 2 -33 23 -28 18 5 19 7 5 10 -26 5 -22 40 5 45 19
4 18 4 -5 6 -25 1 -28 -2 -28 -33z"/>
<path d="M1750 3211 c0 -5 5 -13 10 -16 6 -3 10 -2 10 4 0 5 -4 13 -10 16 -5
3 -10 2 -10 -4z"/>
<path d="M1182 3185 c0 -16 2 -22 5 -12 2 9 2 23 0 30 -3 6 -5 -1 -5 -18z"/>
<path d="M1807 3203 c-4 -3 -7 -11 -7 -17 0 -7 3 -7 8 0 4 7 16 14 27 17 19 5
19 5 -1 6 -11 0 -24 -2 -27 -6z"/>
<path d="M1138 3163 c5 -59 10 -63 11 -10 1 26 -3 47 -7 47 -4 0 -6 -17 -4
-37z"/>
<path d="M1905 3191 c3 -6 14 -9 25 -8 24 2 15 17 -11 17 -11 0 -18 -4 -14 -9z"/>
<path d="M1018 3183 c-10 -2 -18 -8 -18 -13 0 -10 38 -1 46 11 5 9 1 10 -28 2z"/>
<path d="M1551 3174 c0 -11 3 -14 6 -6 3 7 2 16 -1 19 -3 4 -6 -2 -5 -13z"/>
<path d="M1712 3159 c-2 -44 20 -69 43 -49 8 7 15 17 15 23 0 6 -6 2 -14 -9
-19 -24 -33 -11 -39 36 l-4 35 -1 -36z"/>
<path d="M924 3159 c-3 -6 -1 -16 6 -22 9 -9 11 -9 8 2 -2 8 5 17 15 19 12 2
17 -3 17 -17 0 -14 -6 -21 -20 -21 -21 0 -23 -10 -9 -50 9 -25 9 -25 5 3 -2
21 1 27 15 27 11 0 19 -6 19 -14 0 -8 4 -17 9 -20 7 -4 1 32 -15 92 -4 15 -40
16 -50 1z"/>
<path d="M1225 3160 c3 -5 13 -10 22 -10 11 0 14 -7 11 -25 -3 -13 -1 -22 3
-19 16 10 9 43 -10 54 -25 13 -34 13 -26 0z"/>
<path d="M1800 3155 c0 -8 8 -11 20 -8 11 3 20 7 20 8 0 1 -9 5 -20 8 -12 3
-20 0 -20 -8z"/>
<path d="M2050 3166 c0 -2 9 -6 20 -9 11 -3 18 -1 14 4 -5 9 -34 13 -34 5z"/>
<path d="M863 3153 c-7 -2 -13 -9 -13 -15 0 -7 4 -7 13 1 10 8 17 7 27 -2 12
-10 12 -9 1 6 -7 9 -14 17 -15 16 0 0 -7 -3 -13 -6z"/>
<path d="M1312 3135 c0 -16 2 -22 5 -12 2 9 2 23 0 30 -3 6 -5 -1 -5 -18z"/>
<path d="M1960 3135 c0 -9 6 -12 15 -9 8 4 15 7 15 9 0 2 -7 5 -15 9 -9 3 -15
0 -15 -9z"/>
<path d="M1010 3130 c0 -13 11 -13 30 0 12 8 11 10 -7 10 -13 0 -23 -4 -23
-10z"/>
<path d="M1112 3120 c0 -14 2 -19 5 -12 2 6 2 18 0 25 -3 6 -5 1 -5 -13z"/>
<path d="M1180 3120 c13 -23 20 -26 20 -6 0 8 -7 16 -15 20 -13 4 -14 2 -5
-14z"/>
<path d="M1460 3120 c0 -5 5 -10 11 -10 5 0 7 5 4 10 -3 6 -8 10 -11 10 -2 0
-4 -4 -4 -10z"/>
<path d="M1791 3114 c0 -11 3 -14 6 -6 3 7 2 16 -1 19 -3 4 -6 -2 -5 -13z"/>
<path d="M2031 3114 c0 -11 3 -14 6 -6 3 7 2 16 -1 19 -3 4 -6 -2 -5 -13z"/>
<path d="M1600 3116 c0 -2 9 -6 20 -9 11 -3 20 -1 20 4 0 5 -9 9 -20 9 -11 0
-20 -2 -20 -4z"/>
<path d="M2160 3111 c0 -7 -8 -11 -17 -9 -24 4 -43 -10 -42 -30 0 -12 3 -11 9
5 9 23 39 22 41 -1 0 -6 5 0 10 13 5 13 7 26 4 29 -3 3 -5 0 -5 -7z"/>
<path d="M2196 3104 c-4 -9 -4 -19 -1 -22 2 -3 7 3 11 12 4 9 4 19 1 22 -2 3
-7 -3 -11 -12z"/>
<path d="M710 3105 c0 -3 9 -14 20 -25 24 -24 26 -45 5 -36 -11 4 -15 -2 -15
-22 1 -23 2 -24 11 -9 5 9 17 17 25 17 12 0 11 8 -7 40 -19 34 -39 52 -39 35z"/>
<path d="M781 3094 c0 -11 3 -14 6 -6 3 7 2 16 -1 19 -3 4 -6 -2 -5 -13z"/>
<path d="M1016 3086 c7 -19 39 -22 50 -4 5 8 2 9 -11 5 -9 -4 -24 -2 -31 4
-12 10 -13 9 -8 -5z"/>
<path d="M2275 3090 c-4 -6 1 -7 11 -3 11 4 22 -1 32 -13 14 -18 14 -18 8 -1
-3 10 -6 21 -6 23 0 9 -39 4 -45 -6z"/>
<path d="M633 3083 c-20 -8 -15 -58 8 -84 l20 -24 -16 27 c-21 34 -17 74 7 72
10 -1 15 2 12 7 -6 10 -12 10 -31 2z"/>
<path d="M850 3084 c0 -6 7 -19 16 -30 14 -18 14 -18 3 6 -14 31 -19 36 -19
24z"/>
<path d="M1978 3073 c7 -3 16 -2 19 1 4 3 -2 6 -13 5 -11 0 -14 -3 -6 -6z"/>
<path d="M2055 3070 c-16 -7 -17 -9 -3 -9 9 -1 20 4 23 9 7 11 7 11 -20 0z"/>
<path d="M2211 3041 c-1 -27 2 -32 11 -23 8 8 8 17 0 34 -10 22 -11 21 -11
-11z"/>
<path d="M2351 3063 c-1 -6 -4 -20 -7 -30 -5 -17 -5 -17 6 0 6 10 9 23 6 30
-3 9 -5 9 -5 0z"/>
<path d="M541 3043 c1 -17 18 -47 18 -34 1 11 4 11 19 0 9 -7 6 -1 -7 14 -26
28 -31 32 -30 20z"/>
<path d="M2251 3027 c-1 -35 24 -47 47 -21 16 17 16 17 -1 4 -20 -14 -32 -7
-40 25 -3 15 -5 13 -6 -8z"/>
<path d="M2410 3030 c-6 -11 -8 -20 -6 -20 3 0 10 9 16 20 6 11 8 20 6 20 -3
0 -10 -9 -16 -20z"/>
<path d="M2452 3036 c7 -8 15 -12 17 -11 5 6 -10 25 -20 25 -5 0 -4 -6 3 -14z"/>
<path d="M675 3030 c3 -5 8 -10 11 -10 2 0 4 5 4 10 0 6 -5 10 -11 10 -5 0 -7
-4 -4 -10z"/>
<path d="M800 3030 c0 -13 11 -13 30 0 12 8 11 10 -7 10 -13 0 -23 -4 -23 -10z"/>
<path d="M484 3014 c3 -9 6 -23 7 -32 0 -14 2 -13 8 3 8 19 8 19 19 -2 9 -17
9 -22 -3 -27 -8 -3 -15 -16 -14 -28 l0 -23 9 23 c11 25 20 27 40 10 13 -13 3
6 -36 67 -18 28 -40 34 -30 9z"/>
<path d="M603 2996 c1 -16 8 -31 15 -32 7 -1 8 0 2 3 -5 2 -8 9 -5 14 4 5 2
17 -4 26 -8 15 -10 13 -8 -11z"/>
<path d="M2499 3003 c-13 -17 -13 -17 5 -3 16 13 20 12 33 -5 15 -20 15 -20
11 0 -4 26 -31 30 -49 8z"/>
<path d="M680 2995 c-7 -9 -11 -18 -8 -20 3 -3 11 1 18 10 7 9 11 18 8 20 -3
3 -11 -1 -18 -10z"/>
<path d="M403 2992 c-9 -5 -7 -17 6 -47 16 -37 18 -38 24 -16 4 17 11 22 22
17 9 -3 13 -2 10 4 -3 6 -18 7 -32 4 -21 -6 -24 -4 -21 12 2 11 11 18 21 18 9
-1 14 2 11 7 -6 11 -25 11 -41 1z"/>
<path d="M560 2985 c0 -5 5 -17 10 -25 5 -8 10 -10 10 -5 0 6 -5 17 -10 25 -5
8 -10 11 -10 5z"/>
<path d="M2320 2980 c0 -4 9 -10 20 -13 11 -3 20 -2 20 3 0 4 -9 10 -20 13
-11 3 -20 2 -20 -3z"/>
<path d="M2390 2960 c0 -6 7 -13 15 -17 24 -9 27 1 5 15 -13 8 -20 8 -20 2z"/>
<path d="M2474 2936 c1 -10 11 -22 23 -27 17 -6 22 -3 26 13 5 16 3 18 -6 9
-16 -16 -35 -14 -40 7 -3 14 -4 14 -3 -2z"/>
<path d="M2570 2925 c0 -8 2 -15 4 -15 2 0 6 7 10 15 3 8 1 15 -4 15 -6 0 -10
-7 -10 -15z"/>
<path d="M450 2903 c-14 -7 -18 -13 -10 -13 17 0 47 17 40 23 -3 2 -16 -2 -30
-10z"/>
<path d="M2291 1183 c1 -4 0 -11 -1 -15 -1 -5 -3 -11 -4 -15 -1 -5 -7 -18 -14
-30 -7 -13 -8 -23 -3 -23 8 0 23 29 26 50 0 3 4 10 8 17 4 6 3 15 -3 18 -6 4
-10 3 -9 -2z"/>
<path d="M2635 1080 c21 -24 26 -25 19 -6 -3 8 -13 17 -22 21 -13 5 -13 2 3
-15z"/>
<path d="M2240 1065 c-11 -20 -11 -28 -1 -38 16 -16 64 11 70 38 3 17 1 17
-12 6 -17 -13 -41 -6 -32 10 4 5 2 9 -3 9 -5 0 -15 -11 -22 -25z"/>
<path d="M2720 923 c-8 -3 -28 -11 -45 -18 -16 -7 -53 -21 -82 -30 -41 -13
-51 -20 -47 -33 5 -13 4 -14 -4 -3 -6 8 -18 11 -31 6 -17 -5 -21 -14 -21 -49
0 -38 -3 -45 -27 -54 -95 -37 -358 -98 -508 -118 -22 -3 -65 -9 -95 -14 -48
-8 -410 -25 -450 -22 -8 1 -85 6 -170 11 -85 5 -200 17 -255 25 -55 9 -113 19
-130 21 -16 3 -87 19 -157 37 l-128 32 0 43 c0 42 -2 44 -43 62 -23 10 -57 22
-74 25 -18 4 -55 19 -84 32 -28 14 -55 22 -60 17 -11 -11 -14 -262 -3 -272 5
-5 37 -19 72 -31 62 -23 66 -28 63 -76 -1 -13 7 -24 24 -32 43 -20 253 -70
385 -92 69 -11 152 -25 185 -31 33 -6 191 -14 351 -16 231 -4 322 -2 440 11
268 30 447 65 629 123 153 49 165 56 165 97 0 31 3 34 68 60 l67 27 0 131 c0
130 -3 142 -35 131z m0 -141 l0 -98 -37 -13 c-21 -8 -44 -16 -50 -18 -10 -4
-13 12 -13 60 0 63 -2 67 -30 84 -16 9 -30 20 -30 24 0 7 125 56 148 58 9 1
12 -25 12 -97z m-2289 31 l72 -26 -27 -22 c-30 -24 -34 -37 -35 -107 -1 -53
-5 -55 -73 -24 l-38 16 0 95 c0 76 3 95 14 95 8 0 47 -12 87 -27z m2114 -33
c-3 -5 -10 -10 -16 -10 -5 0 -9 5 -9 10 0 6 7 10 16 10 8 0 12 -4 9 -10z
m-2013 -32 c-6 -6 -15 -9 -18 -5 -4 3 -4 14 0 23 5 13 9 15 18 6 9 -9 9 -15 0
-24z m2049 -20 c6 -64 -2 -163 -13 -174 -12 -12 -112 -44 -248 -80 -30 -8 -68
-19 -85 -24 -16 -4 -75 -16 -130 -24 -55 -9 -129 -21 -165 -27 -36 -6 -92 -14
-125 -17 -101 -12 -623 -7 -715 5 -47 7 -110 15 -140 18 -30 3 -82 12 -115 20
-58 13 -76 17 -160 30 -22 4 -53 13 -70 20 -16 7 -46 16 -65 20 -69 14 -70 16
-70 122 0 94 0 95 22 90 13 -3 75 -19 138 -36 119 -32 265 -60 430 -83 63 -9
206 -13 430 -13 277 1 353 4 440 19 58 10 130 22 161 26 30 4 71 13 90 19 19
6 90 24 159 41 69 16 143 36 165 44 50 18 65 19 66 4z"/>
<path d="M2500 650 c0 -23 -18 -27 -26 -5 -4 8 -11 15 -17 15 -5 0 -3 -8 6
-18 9 -10 22 -32 30 -49 l13 -32 1 54 c1 30 0 55 -3 55 -2 0 -4 -9 -4 -20z"/>
<path d="M527 648 c7 -8 10 -25 8 -39 -4 -22 -4 -21 7 4 8 19 17 26 28 22 10
-4 11 -3 5 3 -5 5 -21 13 -35 17 -21 7 -23 6 -13 -7z"/>
<path d="M2400 648 c-20 -9 -22 -12 -8 -15 9 -2 19 -14 21 -26 4 -20 4 -19 6
4 0 14 6 30 13 37 15 15 2 15 -32 0z"/>
<path d="M596 632 c-3 -3 -6 -12 -6 -21 0 -13 2 -13 9 -2 6 8 16 11 31 6 14
-4 20 -3 16 3 -7 12 -43 22 -50 14z"/>
<path d="M2273 612 c-8 -5 -9 -13 -3 -22 8 -12 10 -12 10 4 0 14 6 17 25 14
13 -3 22 -1 19 3 -6 11 -35 11 -51 1z"/>
<path d="M670 585 c-7 -14 -10 -28 -7 -32 4 -3 7 1 7 9 0 9 7 21 15 28 12 10
18 10 32 -1 14 -12 16 -12 11 1 -8 26 -43 23 -58 -5z"/>
<path d="M2190 583 c0 -10 3 -35 6 -55 6 -34 10 -38 35 -38 16 0 29 4 29 9 0
4 -11 6 -25 3 -20 -3 -25 0 -25 16 0 11 8 23 18 25 13 4 11 5 -5 6 -16 1 -23
7 -23 20 0 12 8 21 23 24 19 4 18 4 -5 6 -21 1 -28 -4 -28 -16z"/>
<path d="M2361 590 c0 -8 4 -24 9 -35 5 -13 9 -14 9 -5 0 8 -4 24 -9 35 -5 13
-9 14 -9 5z"/>
<path d="M580 576 c0 -9 8 -12 26 -8 19 3 22 7 12 13 -20 13 -38 11 -38 -5z"/>
<path d="M521 564 c0 -11 3 -14 6 -6 3 7 2 16 -1 19 -3 4 -6 -2 -5 -13z"/>
<path d="M808 562 c-4 -16 -14 -22 -32 -22 -14 0 -26 -4 -26 -9 0 -4 11 -6 25
-3 23 4 25 2 20 -29 -3 -22 0 -16 10 16 8 28 13 54 12 60 -2 5 -6 -1 -9 -13z"/>
<path d="M847 566 c-10 -25 -9 -38 2 -31 5 3 12 -3 14 -12 4 -15 5 -15 5 2 0
11 -3 29 -7 39 -7 18 -8 18 -14 2z"/>
<path d="M2107 564 c4 -12 8 -13 13 -3 11 16 40 4 40 -17 0 -12 -7 -15 -23
-12 -21 4 -22 2 -18 -31 5 -33 6 -33 9 -8 2 15 10 27 17 27 19 0 27 17 20 40
-4 14 -15 20 -35 20 -23 0 -28 -4 -23 -16z"/>
<path d="M2310 571 c-8 -6 -18 -7 -22 -5 -4 3 -8 -7 -7 -23 0 -16 3 -22 6 -13
11 27 28 30 45 7 18 -22 18 -22 7 11 -6 17 -12 32 -12 32 -1 0 -9 -4 -17 -9z"/>
<path d="M2420 575 c0 -5 5 -17 10 -25 5 -8 10 -10 10 -5 0 6 -5 17 -10 25 -5
8 -10 11 -10 5z"/>
<path d="M2030 563 c0 -5 11 -8 24 -8 13 0 22 3 19 8 -2 4 -13 7 -24 7 -10 0
-19 -3 -19 -7z"/>
<path d="M940 545 c-20 -24 -18 -85 3 -99 37 -23 78 69 45 102 -16 16 -33 15
-48 -3z m40 -10 c12 -14 6 -49 -13 -73 -7 -9 -13 -9 -23 -1 -17 14 -17 29 -4
63 11 29 22 33 40 11z"/>
<path d="M1979 541 c35 -35 22 -98 -18 -84 -13 5 -13 3 -4 -7 31 -34 68 33 42
79 -8 13 -20 26 -28 29 -7 2 -4 -5 8 -17z"/>
<path d="M572 538 c5 -13 48 -31 48 -20 0 4 -12 12 -26 19 -17 8 -24 8 -22 1z"/>
<path d="M897 543 c-4 -3 -7 -14 -7 -24 0 -9 -5 -19 -12 -21 -7 -3 -9 -12 -5
-23 10 -24 18 -14 27 35 8 42 7 44 -3 33z"/>
<path d="M1026 533 c-6 -14 -5 -15 5 -6 7 7 10 15 7 18 -3 3 -9 -2 -12 -12z"/>
<path d="M1936 533 c-6 -14 -5 -15 5 -6 7 7 10 15 7 18 -3 3 -9 -2 -12 -12z"/>
<path d="M1106 518 c-20 -29 -20 -72 0 -89 34 -28 74 34 55 84 -13 33 -35 35
-55 5z m45 -11 c13 -28 -3 -77 -26 -77 -20 0 -30 46 -16 76 13 30 28 31 42 1z"/>
<path d="M1840 523 c0 -10 4 -14 8 -8 4 6 11 13 16 18 5 4 2 7 -7 7 -10 0 -17
-8 -17 -17z"/>
<path d="M1897 519 c4 -13 8 -18 11 -10 2 7 -1 18 -6 23 -8 8 -9 4 -5 -13z"/>
<path d="M2030 529 c0 -5 11 -14 25 -19 35 -13 34 -44 -1 -36 -17 5 -23 3 -19
-4 3 -5 17 -10 31 -10 37 0 33 44 -6 64 -16 8 -30 10 -30 5z"/>
<path d="M660 525 c0 -17 21 -34 36 -28 8 3 14 9 14 14 0 4 -7 6 -16 2 -9 -3
-20 0 -25 8 -5 8 -9 9 -9 4z"/>
<path d="M1202 518 c-15 -15 -16 -84 0 -94 7 -4 22 -8 33 -9 17 0 22 5 21 24
-1 13 -8 26 -16 28 -13 4 -13 3 0 -6 13 -10 12 -13 -4 -26 -25 -19 -36 -5 -36
43 0 37 21 52 47 31 14 -12 16 -12 11 1 -6 19 -40 24 -56 8z"/>
<path d="M1623 523 c-9 -3 -12 -24 -12 -61 1 -31 4 -44 6 -29 5 35 34 33 44
-3 4 -17 6 -7 6 28 0 54 -15 75 -44 65z m35 -30 c-5 -26 -38 -29 -38 -4 0 15
6 21 21 21 14 0 19 -5 17 -17z"/>
<path d="M1768 523 c7 -3 16 -2 19 1 4 3 -2 6 -13 5 -11 0 -14 -3 -6 -6z"/>
<path d="M1330 499 c-11 -20 -12 -20 -25 -2 -12 15 -12 12 -3 -27 11 -41 12
-42 18 -19 4 14 13 35 19 47 6 12 9 22 7 22 -3 0 -10 -9 -16 -21z"/>
<path d="M1440 503 c0 -12 3 -14 8 -7 4 7 16 14 27 17 15 4 14 5 -7 6 -21 1
-28 -4 -28 -16z"/>
<path d="M1520 503 c-12 -15 -12 -16 0 -5 8 6 22 12 33 12 15 0 18 -7 15 -42
-2 -35 -7 -43 -23 -43 -14 0 -22 9 -26 30 -7 30 -7 30 -8 3 -1 -37 24 -61 50
-47 16 8 19 19 17 57 -2 39 -7 48 -24 50 -11 2 -27 -5 -34 -15z"/>
<path d="M1022 473 c-2 -41 -1 -43 26 -42 26 0 26 1 5 11 -14 7 -23 22 -26 42
-3 25 -4 23 -5 -11z"/>
<path d="M831 484 c0 -11 3 -14 6 -6 3 7 2 16 -1 19 -3 4 -6 -2 -5 -13z"/>
<path d="M1806 485 c-3 -8 -1 -15 4 -15 6 0 10 7 10 15 0 8 -2 15 -4 15 -2 0
-6 -7 -10 -15z"/>
<path d="M1851 462 c2 -31 3 -32 6 -9 6 36 40 38 46 2 4 -24 4 -24 3 2 -1 20
-8 28 -28 34 -27 7 -28 6 -27 -29z"/>
<path d="M1771 455 c1 -40 1 -40 10 -10 5 18 5 33 -1 39 -7 7 -10 -4 -9 -29z"/>
<path d="M1440 465 c0 -8 9 -10 25 -7 14 2 25 6 25 7 0 1 -11 5 -25 7 -16 3
-25 1 -25 -7z"/>
<path d="M1997 1183 c-8 -13 2 -43 14 -43 10 0 10 8 0 34 -5 12 -10 16 -14 9z"/>
<path d="M1870 1070 c0 -5 5 -10 11 -10 5 0 7 5 4 10 -3 6 -8 10 -11 10 -2 0
-4 -4 -4 -10z"/>
</g>
</svg>
